<?xml version="1.0" encoding="utf-8" standalone="no"?>
<!DOCTYPE svg PUBLIC "-//W3C//DTD SVG 1.1//EN"
  "http://www.w3.org/Graphics/SVG/1.1/DTD/svg11.dtd">
<svg xmlns:xlink="http://www.w3.org/1999/xlink" width="857.287812pt" height="425.21375pt" viewBox="0 0 857.287812 425.21375" xmlns="http://www.w3.org/2000/svg" version="1.1">
 <metadata>
  <rdf:RDF xmlns:dc="http://purl.org/dc/elements/1.1/" xmlns:cc="http://creativecommons.org/ns#" xmlns:rdf="http://www.w3.org/1999/02/22-rdf-syntax-ns#">
   <cc:Work>
    <dc:type rdf:resource="http://purl.org/dc/dcmitype/StillImage"/>
    <dc:date>2025-06-29T07:52:08.221686</dc:date>
    <dc:format>image/svg+xml</dc:format>
    <dc:creator>
     <cc:Agent>
      <dc:title>Matplotlib v3.10.3, https://matplotlib.org/</dc:title>
     </cc:Agent>
    </dc:creator>
   </cc:Work>
  </rdf:RDF>
 </metadata>
 <defs>
  <style type="text/css">*{stroke-linejoin: round; stroke-linecap: butt}</style>
 </defs>
 <g id="figure_1">
  <g id="patch_1">
   <path d="M 0 425.21375 
L 857.287812 425.21375 
L 857.287812 0 
L 0 0 
z
" style="fill: #ffffff"/>
  </g>
  <g id="axes_1">
   <g id="patch_2">
    <path d="M 51.187813 390.005625 
L 850.087813 390.005625 
L 850.087813 23.345625 
L 51.187813 23.345625 
z
" style="fill: #eaeaf2"/>
   </g>
   <g id="matplotlib.axis_1">
    <g id="xtick_1">
     <g id="line2d_1">
      <path d="M 87.501449 390.005625 
L 87.501449 23.345625 
" clip-path="url(#pe3e9817fab)" style="fill: none; stroke: #ffffff; stroke-opacity: 0.3; stroke-width: 0.8; stroke-linecap: round"/>
     </g>
     <g id="line2d_2"/>
     <g id="text_1">
      <!-- 0.0 -->
      <g style="fill: #262626" transform="translate(80.551449 400.7525) scale(0.1 -0.1)">
       <defs>
        <path id="LiberationSans-30" d="M 3309 2203 
Q 3309 1100 2920 518 
Q 2531 -63 1772 -63 
Q 1013 -63 631 515 
Q 250 1094 250 2203 
Q 250 3338 620 3903 
Q 991 4469 1791 4469 
Q 2569 4469 2939 3897 
Q 3309 3325 3309 2203 
z
M 2738 2203 
Q 2738 3156 2517 3584 
Q 2297 4013 1791 4013 
Q 1272 4013 1045 3591 
Q 819 3169 819 2203 
Q 819 1266 1048 831 
Q 1278 397 1778 397 
Q 2275 397 2506 840 
Q 2738 1284 2738 2203 
z
" transform="scale(0.015625)"/>
        <path id="LiberationSans-2e" d="M 584 0 
L 584 684 
L 1194 684 
L 1194 0 
L 584 0 
z
" transform="scale(0.015625)"/>
       </defs>
       <use xlink:href="#LiberationSans-30"/>
       <use xlink:href="#LiberationSans-2e" transform="translate(55.615234 0)"/>
       <use xlink:href="#LiberationSans-30" transform="translate(83.398438 0)"/>
      </g>
     </g>
    </g>
    <g id="xtick_2">
     <g id="line2d_3">
      <path d="M 240.40097 390.005625 
L 240.40097 23.345625 
" clip-path="url(#pe3e9817fab)" style="fill: none; stroke: #ffffff; stroke-opacity: 0.3; stroke-width: 0.8; stroke-linecap: round"/>
     </g>
     <g id="line2d_4"/>
     <g id="text_2">
      <!-- 0.2 -->
      <g style="fill: #262626" transform="translate(233.45097 400.7525) scale(0.1 -0.1)">
       <defs>
        <path id="LiberationSans-32" d="M 322 0 
L 322 397 
Q 481 763 711 1042 
Q 941 1322 1194 1548 
Q 1447 1775 1695 1969 
Q 1944 2163 2144 2356 
Q 2344 2550 2467 2762 
Q 2591 2975 2591 3244 
Q 2591 3606 2378 3806 
Q 2166 4006 1788 4006 
Q 1428 4006 1195 3811 
Q 963 3616 922 3263 
L 347 3316 
Q 409 3844 795 4156 
Q 1181 4469 1788 4469 
Q 2453 4469 2811 4155 
Q 3169 3841 3169 3263 
Q 3169 3006 3051 2753 
Q 2934 2500 2703 2247 
Q 2472 1994 1819 1463 
Q 1459 1169 1246 933 
Q 1034 697 941 478 
L 3238 478 
L 3238 0 
L 322 0 
z
" transform="scale(0.015625)"/>
       </defs>
       <use xlink:href="#LiberationSans-30"/>
       <use xlink:href="#LiberationSans-2e" transform="translate(55.615234 0)"/>
       <use xlink:href="#LiberationSans-32" transform="translate(83.398438 0)"/>
      </g>
     </g>
    </g>
    <g id="xtick_3">
     <g id="line2d_5">
      <path d="M 393.300492 390.005625 
L 393.300492 23.345625 
" clip-path="url(#pe3e9817fab)" style="fill: none; stroke: #ffffff; stroke-opacity: 0.3; stroke-width: 0.8; stroke-linecap: round"/>
     </g>
     <g id="line2d_6"/>
     <g id="text_3">
      <!-- 0.4 -->
      <g style="fill: #262626" transform="translate(386.350492 400.7525) scale(0.1 -0.1)">
       <defs>
        <path id="LiberationSans-34" d="M 2753 997 
L 2753 0 
L 2222 0 
L 2222 997 
L 147 997 
L 147 1434 
L 2163 4403 
L 2753 4403 
L 2753 1441 
L 3372 1441 
L 3372 997 
L 2753 997 
z
M 2222 3769 
Q 2216 3750 2134 3603 
Q 2053 3456 2013 3397 
L 884 1734 
L 716 1503 
L 666 1441 
L 2222 1441 
L 2222 3769 
z
" transform="scale(0.015625)"/>
       </defs>
       <use xlink:href="#LiberationSans-30"/>
       <use xlink:href="#LiberationSans-2e" transform="translate(55.615234 0)"/>
       <use xlink:href="#LiberationSans-34" transform="translate(83.398438 0)"/>
      </g>
     </g>
    </g>
    <g id="xtick_4">
     <g id="line2d_7">
      <path d="M 546.200013 390.005625 
L 546.200013 23.345625 
" clip-path="url(#pe3e9817fab)" style="fill: none; stroke: #ffffff; stroke-opacity: 0.3; stroke-width: 0.8; stroke-linecap: round"/>
     </g>
     <g id="line2d_8"/>
     <g id="text_4">
      <!-- 0.6 -->
      <g style="fill: #262626" transform="translate(539.250013 400.7525) scale(0.1 -0.1)">
       <defs>
        <path id="LiberationSans-36" d="M 3278 1441 
Q 3278 744 2900 340 
Q 2522 -63 1856 -63 
Q 1113 -63 719 490 
Q 325 1044 325 2100 
Q 325 3244 734 3856 
Q 1144 4469 1900 4469 
Q 2897 4469 3156 3572 
L 2619 3475 
Q 2453 4013 1894 4013 
Q 1413 4013 1148 3564 
Q 884 3116 884 2266 
Q 1038 2550 1316 2698 
Q 1594 2847 1953 2847 
Q 2563 2847 2920 2465 
Q 3278 2084 3278 1441 
z
M 2706 1416 
Q 2706 1894 2472 2153 
Q 2238 2413 1819 2413 
Q 1425 2413 1183 2183 
Q 941 1953 941 1550 
Q 941 1041 1192 716 
Q 1444 391 1838 391 
Q 2244 391 2475 664 
Q 2706 938 2706 1416 
z
" transform="scale(0.015625)"/>
       </defs>
       <use xlink:href="#LiberationSans-30"/>
       <use xlink:href="#LiberationSans-2e" transform="translate(55.615234 0)"/>
       <use xlink:href="#LiberationSans-36" transform="translate(83.398438 0)"/>
      </g>
     </g>
    </g>
    <g id="xtick_5">
     <g id="line2d_9">
      <path d="M 699.099535 390.005625 
L 699.099535 23.345625 
" clip-path="url(#pe3e9817fab)" style="fill: none; stroke: #ffffff; stroke-opacity: 0.3; stroke-width: 0.8; stroke-linecap: round"/>
     </g>
     <g id="line2d_10"/>
     <g id="text_5">
      <!-- 0.8 -->
      <g style="fill: #262626" transform="translate(692.149535 400.7525) scale(0.1 -0.1)">
       <defs>
        <path id="LiberationSans-38" d="M 3281 1228 
Q 3281 619 2893 278 
Q 2506 -63 1781 -63 
Q 1075 -63 676 271 
Q 278 606 278 1222 
Q 278 1653 525 1947 
Q 772 2241 1156 2303 
L 1156 2316 
Q 797 2400 589 2681 
Q 381 2963 381 3341 
Q 381 3844 757 4156 
Q 1134 4469 1769 4469 
Q 2419 4469 2795 4162 
Q 3172 3856 3172 3334 
Q 3172 2956 2962 2675 
Q 2753 2394 2391 2322 
L 2391 2309 
Q 2813 2241 3047 1952 
Q 3281 1663 3281 1228 
z
M 2588 3303 
Q 2588 4050 1769 4050 
Q 1372 4050 1164 3862 
Q 956 3675 956 3303 
Q 956 2925 1170 2726 
Q 1384 2528 1775 2528 
Q 2172 2528 2380 2711 
Q 2588 2894 2588 3303 
z
M 2697 1281 
Q 2697 1691 2453 1898 
Q 2209 2106 1769 2106 
Q 1341 2106 1100 1882 
Q 859 1659 859 1269 
Q 859 359 1788 359 
Q 2247 359 2472 579 
Q 2697 800 2697 1281 
z
" transform="scale(0.015625)"/>
       </defs>
       <use xlink:href="#LiberationSans-30"/>
       <use xlink:href="#LiberationSans-2e" transform="translate(55.615234 0)"/>
       <use xlink:href="#LiberationSans-38" transform="translate(83.398438 0)"/>
      </g>
     </g>
    </g>
    <g id="text_6">
     <!-- Relative Position in Protein -->
     <g style="fill: #262626" transform="translate(378.936875 415.52375) scale(0.12 -0.12)">
      <defs>
       <path id="LiberationSans-52" d="M 3638 0 
L 2494 1828 
L 1122 1828 
L 1122 0 
L 525 0 
L 525 4403 
L 2597 4403 
Q 3341 4403 3745 4070 
Q 4150 3738 4150 3144 
Q 4150 2653 3864 2318 
Q 3578 1984 3075 1897 
L 4325 0 
L 3638 0 
z
M 3550 3138 
Q 3550 3522 3289 3723 
Q 3028 3925 2538 3925 
L 1122 3925 
L 1122 2300 
L 2563 2300 
Q 3034 2300 3292 2520 
Q 3550 2741 3550 3138 
z
" transform="scale(0.015625)"/>
       <path id="LiberationSans-65" d="M 863 1572 
Q 863 991 1103 675 
Q 1344 359 1806 359 
Q 2172 359 2392 506 
Q 2613 653 2691 878 
L 3184 738 
Q 2881 -63 1806 -63 
Q 1056 -63 664 384 
Q 272 831 272 1713 
Q 272 2550 664 2997 
Q 1056 3444 1784 3444 
Q 3275 3444 3275 1647 
L 3275 1572 
L 863 1572 
z
M 2694 2003 
Q 2647 2538 2422 2783 
Q 2197 3028 1775 3028 
Q 1366 3028 1127 2754 
Q 888 2481 869 2003 
L 2694 2003 
z
" transform="scale(0.015625)"/>
       <path id="LiberationSans-6c" d="M 431 0 
L 431 4638 
L 994 4638 
L 994 0 
L 431 0 
z
" transform="scale(0.015625)"/>
       <path id="LiberationSans-61" d="M 1294 -63 
Q 784 -63 528 206 
Q 272 475 272 944 
Q 272 1469 617 1750 
Q 963 2031 1731 2050 
L 2491 2063 
L 2491 2247 
Q 2491 2659 2316 2837 
Q 2141 3016 1766 3016 
Q 1388 3016 1216 2887 
Q 1044 2759 1009 2478 
L 422 2531 
Q 566 3444 1778 3444 
Q 2416 3444 2737 3151 
Q 3059 2859 3059 2306 
L 3059 850 
Q 3059 600 3125 473 
Q 3191 347 3375 347 
Q 3456 347 3559 369 
L 3559 19 
Q 3347 -31 3125 -31 
Q 2813 -31 2670 133 
Q 2528 297 2509 647 
L 2491 647 
Q 2275 259 1989 98 
Q 1703 -63 1294 -63 
z
M 1422 359 
Q 1731 359 1972 500 
Q 2213 641 2352 886 
Q 2491 1131 2491 1391 
L 2491 1669 
L 1875 1656 
Q 1478 1650 1273 1575 
Q 1069 1500 959 1344 
Q 850 1188 850 934 
Q 850 659 998 509 
Q 1147 359 1422 359 
z
" transform="scale(0.015625)"/>
       <path id="LiberationSans-74" d="M 1731 25 
Q 1453 -50 1163 -50 
Q 488 -50 488 716 
L 488 2972 
L 97 2972 
L 97 3381 
L 509 3381 
L 675 4138 
L 1050 4138 
L 1050 3381 
L 1675 3381 
L 1675 2972 
L 1050 2972 
L 1050 838 
Q 1050 594 1129 495 
Q 1209 397 1406 397 
Q 1519 397 1731 441 
L 1731 25 
z
" transform="scale(0.015625)"/>
       <path id="LiberationSans-69" d="M 428 4100 
L 428 4638 
L 991 4638 
L 991 4100 
L 428 4100 
z
M 428 0 
L 428 3381 
L 991 3381 
L 991 0 
L 428 0 
z
" transform="scale(0.015625)"/>
       <path id="LiberationSans-76" d="M 1916 0 
L 1250 0 
L 22 3381 
L 622 3381 
L 1366 1181 
Q 1406 1056 1581 441 
L 1691 806 
L 1813 1175 
L 2581 3381 
L 3178 3381 
L 1916 0 
z
" transform="scale(0.015625)"/>
       <path id="LiberationSans-20" transform="scale(0.015625)"/>
       <path id="LiberationSans-50" d="M 3931 3078 
Q 3931 2453 3523 2084 
Q 3116 1716 2416 1716 
L 1122 1716 
L 1122 0 
L 525 0 
L 525 4403 
L 2378 4403 
Q 3119 4403 3525 4056 
Q 3931 3709 3931 3078 
z
M 3331 3072 
Q 3331 3925 2306 3925 
L 1122 3925 
L 1122 2188 
L 2331 2188 
Q 3331 2188 3331 3072 
z
" transform="scale(0.015625)"/>
       <path id="LiberationSans-6f" d="M 3291 1694 
Q 3291 806 2900 371 
Q 2509 -63 1766 -63 
Q 1025 -63 647 389 
Q 269 841 269 1694 
Q 269 3444 1784 3444 
Q 2559 3444 2925 3017 
Q 3291 2591 3291 1694 
z
M 2700 1694 
Q 2700 2394 2492 2711 
Q 2284 3028 1794 3028 
Q 1300 3028 1079 2704 
Q 859 2381 859 1694 
Q 859 1025 1076 689 
Q 1294 353 1759 353 
Q 2266 353 2483 678 
Q 2700 1003 2700 1694 
z
" transform="scale(0.015625)"/>
       <path id="LiberationSans-73" d="M 2969 934 
Q 2969 456 2608 196 
Q 2247 -63 1597 -63 
Q 966 -63 623 145 
Q 281 353 178 794 
L 675 891 
Q 747 619 972 492 
Q 1197 366 1597 366 
Q 2025 366 2223 497 
Q 2422 628 2422 891 
Q 2422 1091 2284 1216 
Q 2147 1341 1841 1422 
L 1438 1528 
Q 953 1653 748 1773 
Q 544 1894 428 2066 
Q 313 2238 313 2488 
Q 313 2950 642 3192 
Q 972 3434 1603 3434 
Q 2163 3434 2492 3237 
Q 2822 3041 2909 2606 
L 2403 2544 
Q 2356 2769 2151 2889 
Q 1947 3009 1603 3009 
Q 1222 3009 1040 2893 
Q 859 2778 859 2544 
Q 859 2400 934 2306 
Q 1009 2213 1156 2147 
Q 1303 2081 1775 1966 
Q 2222 1853 2419 1758 
Q 2616 1663 2730 1547 
Q 2844 1431 2906 1279 
Q 2969 1128 2969 934 
z
" transform="scale(0.015625)"/>
       <path id="LiberationSans-6e" d="M 2578 0 
L 2578 2144 
Q 2578 2478 2512 2662 
Q 2447 2847 2303 2928 
Q 2159 3009 1881 3009 
Q 1475 3009 1240 2731 
Q 1006 2453 1006 1959 
L 1006 0 
L 444 0 
L 444 2659 
Q 444 3250 425 3381 
L 956 3381 
Q 959 3366 962 3297 
Q 966 3228 970 3139 
Q 975 3050 981 2803 
L 991 2803 
Q 1184 3153 1439 3298 
Q 1694 3444 2072 3444 
Q 2628 3444 2886 3167 
Q 3144 2891 3144 2253 
L 3144 0 
L 2578 0 
z
" transform="scale(0.015625)"/>
       <path id="LiberationSans-72" d="M 444 0 
L 444 2594 
Q 444 2950 425 3381 
L 956 3381 
Q 981 2806 981 2691 
L 994 2691 
Q 1128 3125 1303 3284 
Q 1478 3444 1797 3444 
Q 1909 3444 2025 3413 
L 2025 2897 
Q 1913 2928 1725 2928 
Q 1375 2928 1190 2626 
Q 1006 2325 1006 1763 
L 1006 0 
L 444 0 
z
" transform="scale(0.015625)"/>
      </defs>
      <use xlink:href="#LiberationSans-52"/>
      <use xlink:href="#LiberationSans-65" transform="translate(72.216797 0)"/>
      <use xlink:href="#LiberationSans-6c" transform="translate(127.832031 0)"/>
      <use xlink:href="#LiberationSans-61" transform="translate(150.048828 0)"/>
      <use xlink:href="#LiberationSans-74" transform="translate(205.664062 0)"/>
      <use xlink:href="#LiberationSans-69" transform="translate(233.447266 0)"/>
      <use xlink:href="#LiberationSans-76" transform="translate(255.664062 0)"/>
      <use xlink:href="#LiberationSans-65" transform="translate(305.664062 0)"/>
      <use xlink:href="#LiberationSans-20" transform="translate(361.279297 0)"/>
      <use xlink:href="#LiberationSans-50" transform="translate(389.0625 0)"/>
      <use xlink:href="#LiberationSans-6f" transform="translate(455.761719 0)"/>
      <use xlink:href="#LiberationSans-73" transform="translate(511.376953 0)"/>
      <use xlink:href="#LiberationSans-69" transform="translate(561.376953 0)"/>
      <use xlink:href="#LiberationSans-74" transform="translate(583.59375 0)"/>
      <use xlink:href="#LiberationSans-69" transform="translate(611.376953 0)"/>
      <use xlink:href="#LiberationSans-6f" transform="translate(633.59375 0)"/>
      <use xlink:href="#LiberationSans-6e" transform="translate(689.208984 0)"/>
      <use xlink:href="#LiberationSans-20" transform="translate(744.824219 0)"/>
      <use xlink:href="#LiberationSans-69" transform="translate(772.607422 0)"/>
      <use xlink:href="#LiberationSans-6e" transform="translate(794.824219 0)"/>
      <use xlink:href="#LiberationSans-20" transform="translate(850.439453 0)"/>
      <use xlink:href="#LiberationSans-50" transform="translate(878.222656 0)"/>
      <use xlink:href="#LiberationSans-72" transform="translate(944.921875 0)"/>
      <use xlink:href="#LiberationSans-6f" transform="translate(978.222656 0)"/>
      <use xlink:href="#LiberationSans-74" transform="translate(1033.837891 0)"/>
      <use xlink:href="#LiberationSans-65" transform="translate(1061.621094 0)"/>
      <use xlink:href="#LiberationSans-69" transform="translate(1117.236328 0)"/>
      <use xlink:href="#LiberationSans-6e" transform="translate(1139.453125 0)"/>
     </g>
    </g>
   </g>
   <g id="matplotlib.axis_2">
    <g id="ytick_1">
     <g id="line2d_11">
      <path d="M 51.187813 358.356154 
L 850.087813 358.356154 
" clip-path="url(#pe3e9817fab)" style="fill: none; stroke: #ffffff; stroke-opacity: 0.3; stroke-width: 0.8; stroke-linecap: round"/>
     </g>
     <g id="line2d_12"/>
     <g id="text_7">
      <!-- −0.01 -->
      <g style="fill: #262626" transform="translate(22.38625 361.979591) scale(0.1 -0.1)">
       <defs>
        <path id="LiberationSans-2212" d="M 316 1900 
L 316 2356 
L 3425 2356 
L 3425 1900 
L 316 1900 
z
" transform="scale(0.015625)"/>
        <path id="LiberationSans-31" d="M 488 0 
L 488 478 
L 1609 478 
L 1609 3866 
L 616 3156 
L 616 3688 
L 1656 4403 
L 2175 4403 
L 2175 478 
L 3247 478 
L 3247 0 
L 488 0 
z
" transform="scale(0.015625)"/>
       </defs>
       <use xlink:href="#LiberationSans-2212"/>
       <use xlink:href="#LiberationSans-30" transform="translate(58.398438 0)"/>
       <use xlink:href="#LiberationSans-2e" transform="translate(114.013672 0)"/>
       <use xlink:href="#LiberationSans-30" transform="translate(141.796875 0)"/>
       <use xlink:href="#LiberationSans-31" transform="translate(197.412109 0)"/>
      </g>
     </g>
    </g>
    <g id="ytick_2">
     <g id="line2d_13">
      <path d="M 51.187813 280.99323 
L 850.087813 280.99323 
" clip-path="url(#pe3e9817fab)" style="fill: none; stroke: #ffffff; stroke-opacity: 0.3; stroke-width: 0.8; stroke-linecap: round"/>
     </g>
     <g id="line2d_14"/>
     <g id="text_8">
      <!-- 0.00 -->
      <g style="fill: #262626" transform="translate(28.226875 284.616668) scale(0.1 -0.1)">
       <use xlink:href="#LiberationSans-30"/>
       <use xlink:href="#LiberationSans-2e" transform="translate(55.615234 0)"/>
       <use xlink:href="#LiberationSans-30" transform="translate(83.398438 0)"/>
       <use xlink:href="#LiberationSans-30" transform="translate(139.013672 0)"/>
      </g>
     </g>
    </g>
    <g id="ytick_3">
     <g id="line2d_15">
      <path d="M 51.187813 203.630307 
L 850.087813 203.630307 
" clip-path="url(#pe3e9817fab)" style="fill: none; stroke: #ffffff; stroke-opacity: 0.3; stroke-width: 0.8; stroke-linecap: round"/>
     </g>
     <g id="line2d_16"/>
     <g id="text_9">
      <!-- 0.01 -->
      <g style="fill: #262626" transform="translate(28.226875 207.253745) scale(0.1 -0.1)">
       <use xlink:href="#LiberationSans-30"/>
       <use xlink:href="#LiberationSans-2e" transform="translate(55.615234 0)"/>
       <use xlink:href="#LiberationSans-30" transform="translate(83.398438 0)"/>
       <use xlink:href="#LiberationSans-31" transform="translate(139.013672 0)"/>
      </g>
     </g>
    </g>
    <g id="ytick_4">
     <g id="line2d_17">
      <path d="M 51.187813 126.267384 
L 850.087813 126.267384 
" clip-path="url(#pe3e9817fab)" style="fill: none; stroke: #ffffff; stroke-opacity: 0.3; stroke-width: 0.8; stroke-linecap: round"/>
     </g>
     <g id="line2d_18"/>
     <g id="text_10">
      <!-- 0.02 -->
      <g style="fill: #262626" transform="translate(28.226875 129.890821) scale(0.1 -0.1)">
       <use xlink:href="#LiberationSans-30"/>
       <use xlink:href="#LiberationSans-2e" transform="translate(55.615234 0)"/>
       <use xlink:href="#LiberationSans-30" transform="translate(83.398438 0)"/>
       <use xlink:href="#LiberationSans-32" transform="translate(139.013672 0)"/>
      </g>
     </g>
    </g>
    <g id="ytick_5">
     <g id="line2d_19">
      <path d="M 51.187813 48.904461 
L 850.087813 48.904461 
" clip-path="url(#pe3e9817fab)" style="fill: none; stroke: #ffffff; stroke-opacity: 0.3; stroke-width: 0.8; stroke-linecap: round"/>
     </g>
     <g id="line2d_20"/>
     <g id="text_11">
      <!-- 0.03 -->
      <g style="fill: #262626" transform="translate(28.226875 52.527898) scale(0.1 -0.1)">
       <defs>
        <path id="LiberationSans-33" d="M 3278 1216 
Q 3278 606 2890 271 
Q 2503 -63 1784 -63 
Q 1116 -63 717 239 
Q 319 541 244 1131 
L 825 1184 
Q 938 403 1784 403 
Q 2209 403 2451 612 
Q 2694 822 2694 1234 
Q 2694 1594 2417 1795 
Q 2141 1997 1619 1997 
L 1300 1997 
L 1300 2484 
L 1606 2484 
Q 2069 2484 2323 2686 
Q 2578 2888 2578 3244 
Q 2578 3597 2370 3801 
Q 2163 4006 1753 4006 
Q 1381 4006 1151 3815 
Q 922 3625 884 3278 
L 319 3322 
Q 381 3863 767 4166 
Q 1153 4469 1759 4469 
Q 2422 4469 2789 4161 
Q 3156 3853 3156 3303 
Q 3156 2881 2920 2617 
Q 2684 2353 2234 2259 
L 2234 2247 
Q 2728 2194 3003 1916 
Q 3278 1638 3278 1216 
z
" transform="scale(0.015625)"/>
       </defs>
       <use xlink:href="#LiberationSans-30"/>
       <use xlink:href="#LiberationSans-2e" transform="translate(55.615234 0)"/>
       <use xlink:href="#LiberationSans-30" transform="translate(83.398438 0)"/>
       <use xlink:href="#LiberationSans-33" transform="translate(139.013672 0)"/>
      </g>
     </g>
    </g>
    <g id="text_12">
     <!-- Mean Absolute Attribution -->
     <g style="fill: #262626" transform="translate(15.89625 274.718437) rotate(-90) scale(0.12 -0.12)">
      <defs>
       <path id="LiberationSans-4d" d="M 4269 0 
L 4269 2938 
Q 4269 3425 4297 3875 
Q 4144 3316 4022 3000 
L 2884 0 
L 2466 0 
L 1313 3000 
L 1138 3531 
L 1034 3875 
L 1044 3528 
L 1056 2938 
L 1056 0 
L 525 0 
L 525 4403 
L 1309 4403 
L 2481 1350 
Q 2544 1166 2601 955 
Q 2659 744 2678 650 
Q 2703 775 2783 1029 
Q 2863 1284 2891 1350 
L 4041 4403 
L 4806 4403 
L 4806 0 
L 4269 0 
z
" transform="scale(0.015625)"/>
       <path id="LiberationSans-41" d="M 3647 0 
L 3144 1288 
L 1138 1288 
L 631 0 
L 13 0 
L 1809 4403 
L 2488 4403 
L 4256 0 
L 3647 0 
z
M 2141 3953 
L 2113 3866 
Q 2034 3606 1881 3200 
L 1319 1753 
L 2966 1753 
L 2400 3206 
Q 2313 3422 2225 3694 
L 2141 3953 
z
" transform="scale(0.015625)"/>
       <path id="LiberationSans-62" d="M 3291 1706 
Q 3291 -63 2047 -63 
Q 1663 -63 1408 76 
Q 1153 216 994 525 
L 988 525 
Q 988 428 975 229 
Q 963 31 956 0 
L 413 0 
Q 431 169 431 697 
L 431 4638 
L 994 4638 
L 994 3316 
Q 994 3113 981 2838 
L 994 2838 
Q 1150 3163 1408 3303 
Q 1666 3444 2047 3444 
Q 2688 3444 2989 3012 
Q 3291 2581 3291 1706 
z
M 2700 1688 
Q 2700 2397 2512 2703 
Q 2325 3009 1903 3009 
Q 1428 3009 1211 2684 
Q 994 2359 994 1653 
Q 994 988 1206 670 
Q 1419 353 1897 353 
Q 2322 353 2511 667 
Q 2700 981 2700 1688 
z
" transform="scale(0.015625)"/>
       <path id="LiberationSans-75" d="M 981 3381 
L 981 1238 
Q 981 903 1047 718 
Q 1113 534 1256 453 
Q 1400 372 1678 372 
Q 2084 372 2318 650 
Q 2553 928 2553 1422 
L 2553 3381 
L 3116 3381 
L 3116 722 
Q 3116 131 3134 0 
L 2603 0 
Q 2600 16 2597 84 
Q 2594 153 2589 242 
Q 2584 331 2578 578 
L 2569 578 
Q 2375 228 2120 82 
Q 1866 -63 1488 -63 
Q 931 -63 673 214 
Q 416 491 416 1128 
L 416 3381 
L 981 3381 
z
" transform="scale(0.015625)"/>
      </defs>
      <use xlink:href="#LiberationSans-4d"/>
      <use xlink:href="#LiberationSans-65" transform="translate(83.300781 0)"/>
      <use xlink:href="#LiberationSans-61" transform="translate(138.916016 0)"/>
      <use xlink:href="#LiberationSans-6e" transform="translate(194.53125 0)"/>
      <use xlink:href="#LiberationSans-20" transform="translate(250.146484 0)"/>
      <use xlink:href="#LiberationSans-41" transform="translate(272.429688 0)"/>
      <use xlink:href="#LiberationSans-62" transform="translate(339.128906 0)"/>
      <use xlink:href="#LiberationSans-73" transform="translate(394.744141 0)"/>
      <use xlink:href="#LiberationSans-6f" transform="translate(444.744141 0)"/>
      <use xlink:href="#LiberationSans-6c" transform="translate(500.359375 0)"/>
      <use xlink:href="#LiberationSans-75" transform="translate(522.576172 0)"/>
      <use xlink:href="#LiberationSans-74" transform="translate(578.191406 0)"/>
      <use xlink:href="#LiberationSans-65" transform="translate(605.974609 0)"/>
      <use xlink:href="#LiberationSans-20" transform="translate(661.589844 0)"/>
      <use xlink:href="#LiberationSans-41" transform="translate(683.873047 0)"/>
      <use xlink:href="#LiberationSans-74" transform="translate(750.572266 0)"/>
      <use xlink:href="#LiberationSans-74" transform="translate(778.355469 0)"/>
      <use xlink:href="#LiberationSans-72" transform="translate(806.138672 0)"/>
      <use xlink:href="#LiberationSans-69" transform="translate(839.439453 0)"/>
      <use xlink:href="#LiberationSans-62" transform="translate(861.65625 0)"/>
      <use xlink:href="#LiberationSans-75" transform="translate(917.271484 0)"/>
      <use xlink:href="#LiberationSans-74" transform="translate(972.886719 0)"/>
      <use xlink:href="#LiberationSans-69" transform="translate(1000.669922 0)"/>
      <use xlink:href="#LiberationSans-6f" transform="translate(1022.886719 0)"/>
      <use xlink:href="#LiberationSans-6e" transform="translate(1078.501953 0)"/>
     </g>
    </g>
   </g>
   <g id="FillBetweenPolyCollection_1">
    <defs>
     <path id="mf3257535cd" d="M 87.501449 -242.408186 
L 87.501449 -115.286105 
L 125.726329 -130.749918 
L 163.95121 -126.432081 
L 202.17609 -128.248975 
L 240.40097 -128.795635 
L 278.625851 -128.499016 
L 316.850731 -126.198861 
L 355.075612 -127.378991 
L 393.300492 -124.996281 
L 431.525372 -121.066303 
L 469.750253 -124.374075 
L 507.975133 -125.686495 
L 546.200013 -120.731905 
L 584.424894 -120.451916 
L 622.649774 -110.448142 
L 660.874655 -106.154364 
L 699.099535 -103.161011 
L 737.324415 -85.456485 
L 775.549296 -86.591173 
L 813.774176 -51.874489 
L 813.774176 -385.201761 
L 813.774176 -385.201761 
L 775.549296 -320.941031 
L 737.324415 -316.127568 
L 699.099535 -275.761013 
L 660.874655 -268.910947 
L 622.649774 -260.680709 
L 584.424894 -238.487053 
L 546.200013 -235.721471 
L 507.975133 -223.54298 
L 469.750253 -226.098062 
L 431.525372 -227.981877 
L 393.300492 -221.674678 
L 355.075612 -216.200778 
L 316.850731 -214.500431 
L 278.625851 -212.430151 
L 240.40097 -209.829843 
L 202.17609 -209.428612 
L 163.95121 -213.647886 
L 125.726329 -207.970554 
L 87.501449 -242.408186 
z
" style="stroke: #0000ff; stroke-opacity: 0.3"/>
    </defs>
    <g clip-path="url(#pe3e9817fab)">
     <use xlink:href="#mf3257535cd" x="0" y="425.21375" style="fill: #0000ff; fill-opacity: 0.3; stroke: #0000ff; stroke-opacity: 0.3"/>
    </g>
   </g>
   <g id="line2d_21">
    <path d="M 87.501449 246.366605 
L 125.726329 255.853513 
L 163.95121 255.173768 
L 202.17609 256.374956 
L 240.40097 255.901012 
L 278.625851 254.749166 
L 316.850731 254.864103 
L 355.075612 253.423867 
L 393.300492 251.878271 
L 431.525372 250.68966 
L 469.750253 249.977681 
L 507.975133 250.59901 
L 546.200013 246.987062 
L 584.424894 245.744264 
L 622.649774 239.649323 
L 660.874655 237.681098 
L 699.099535 235.752742 
L 737.324415 224.421723 
L 775.549296 221.447646 
L 813.774176 206.675625 
" clip-path="url(#pe3e9817fab)" style="fill: none; stroke: #0000ff; stroke-width: 2; stroke-linecap: round"/>
   </g>
   <g id="patch_3">
    <path d="M 51.187813 390.005625 
L 51.187813 23.345625 
" style="fill: none"/>
   </g>
   <g id="patch_4">
    <path d="M 850.087813 390.005625 
L 850.087813 23.345625 
" style="fill: none"/>
   </g>
   <g id="patch_5">
    <path d="M 51.187813 390.005625 
L 850.087813 390.005625 
" style="fill: none"/>
   </g>
   <g id="patch_6">
    <path d="M 51.187813 23.345625 
L 850.087813 23.345625 
" style="fill: none"/>
   </g>
   <g id="text_13">
    <!-- Position-Specific Attribution Importance - real_ppis -->
    <g style="fill: #262626" transform="translate(294.235938 17.345625) scale(0.14 -0.14)">
     <defs>
      <path id="LiberationSans-2d" d="M 284 1450 
L 284 1950 
L 1847 1950 
L 1847 1450 
L 284 1450 
z
" transform="scale(0.015625)"/>
      <path id="LiberationSans-53" d="M 3975 1216 
Q 3975 606 3498 271 
Q 3022 -63 2156 -63 
Q 547 -63 291 1056 
L 869 1172 
Q 969 775 1294 589 
Q 1619 403 2178 403 
Q 2756 403 3070 601 
Q 3384 800 3384 1184 
Q 3384 1400 3286 1534 
Q 3188 1669 3009 1756 
Q 2831 1844 2584 1903 
Q 2338 1963 2038 2031 
Q 1516 2147 1245 2262 
Q 975 2378 819 2520 
Q 663 2663 580 2853 
Q 497 3044 497 3291 
Q 497 3856 930 4162 
Q 1363 4469 2169 4469 
Q 2919 4469 3316 4239 
Q 3713 4009 3872 3456 
L 3284 3353 
Q 3188 3703 2916 3861 
Q 2644 4019 2163 4019 
Q 1634 4019 1356 3844 
Q 1078 3669 1078 3322 
Q 1078 3119 1186 2986 
Q 1294 2853 1497 2761 
Q 1700 2669 2306 2534 
Q 2509 2488 2711 2439 
Q 2913 2391 3097 2323 
Q 3281 2256 3442 2165 
Q 3603 2075 3722 1944 
Q 3841 1813 3908 1634 
Q 3975 1456 3975 1216 
z
" transform="scale(0.015625)"/>
      <path id="LiberationSans-70" d="M 3291 1706 
Q 3291 -63 2047 -63 
Q 1266 -63 997 525 
L 981 525 
Q 994 500 994 -6 
L 994 -1328 
L 431 -1328 
L 431 2691 
Q 431 3213 413 3381 
L 956 3381 
Q 959 3369 965 3292 
Q 972 3216 980 3056 
Q 988 2897 988 2838 
L 1000 2838 
Q 1150 3150 1397 3295 
Q 1644 3441 2047 3441 
Q 2672 3441 2981 3022 
Q 3291 2603 3291 1706 
z
M 2700 1694 
Q 2700 2400 2509 2703 
Q 2319 3006 1903 3006 
Q 1569 3006 1380 2865 
Q 1191 2725 1092 2426 
Q 994 2128 994 1650 
Q 994 984 1206 668 
Q 1419 353 1897 353 
Q 2316 353 2508 661 
Q 2700 969 2700 1694 
z
" transform="scale(0.015625)"/>
      <path id="LiberationSans-63" d="M 859 1706 
Q 859 1031 1071 706 
Q 1284 381 1713 381 
Q 2013 381 2214 543 
Q 2416 706 2463 1044 
L 3031 1006 
Q 2966 519 2616 228 
Q 2266 -63 1728 -63 
Q 1019 -63 645 385 
Q 272 834 272 1694 
Q 272 2547 647 2995 
Q 1022 3444 1722 3444 
Q 2241 3444 2583 3175 
Q 2925 2906 3013 2434 
L 2434 2391 
Q 2391 2672 2212 2837 
Q 2034 3003 1706 3003 
Q 1259 3003 1059 2706 
Q 859 2409 859 1706 
z
" transform="scale(0.015625)"/>
      <path id="LiberationSans-66" d="M 1128 2972 
L 1128 0 
L 566 0 
L 566 2972 
L 91 2972 
L 91 3381 
L 566 3381 
L 566 3763 
Q 566 4225 769 4428 
Q 972 4631 1391 4631 
Q 1625 4631 1788 4594 
L 1788 4166 
Q 1647 4191 1538 4191 
Q 1322 4191 1225 4081 
Q 1128 3972 1128 3684 
L 1128 3381 
L 1788 3381 
L 1788 2972 
L 1128 2972 
z
" transform="scale(0.015625)"/>
      <path id="LiberationSans-49" d="M 591 0 
L 591 4403 
L 1188 4403 
L 1188 0 
L 591 0 
z
" transform="scale(0.015625)"/>
      <path id="LiberationSans-6d" d="M 2400 0 
L 2400 2144 
Q 2400 2634 2265 2821 
Q 2131 3009 1781 3009 
Q 1422 3009 1212 2734 
Q 1003 2459 1003 1959 
L 1003 0 
L 444 0 
L 444 2659 
Q 444 3250 425 3381 
L 956 3381 
Q 959 3366 962 3297 
Q 966 3228 970 3139 
Q 975 3050 981 2803 
L 991 2803 
Q 1172 3163 1406 3303 
Q 1641 3444 1978 3444 
Q 2363 3444 2586 3291 
Q 2809 3138 2897 2803 
L 2906 2803 
Q 3081 3144 3329 3294 
Q 3578 3444 3931 3444 
Q 4444 3444 4676 3166 
Q 4909 2888 4909 2253 
L 4909 0 
L 4353 0 
L 4353 2144 
Q 4353 2634 4218 2821 
Q 4084 3009 3734 3009 
Q 3366 3009 3161 2736 
Q 2956 2463 2956 1959 
L 2956 0 
L 2400 0 
z
" transform="scale(0.015625)"/>
      <path id="LiberationSans-5f" d="M -97 -1272 
L -97 -866 
L 3631 -866 
L 3631 -1272 
L -97 -1272 
z
" transform="scale(0.015625)"/>
     </defs>
     <use xlink:href="#LiberationSans-50"/>
     <use xlink:href="#LiberationSans-6f" transform="translate(66.699219 0)"/>
     <use xlink:href="#LiberationSans-73" transform="translate(122.314453 0)"/>
     <use xlink:href="#LiberationSans-69" transform="translate(172.314453 0)"/>
     <use xlink:href="#LiberationSans-74" transform="translate(194.53125 0)"/>
     <use xlink:href="#LiberationSans-69" transform="translate(222.314453 0)"/>
     <use xlink:href="#LiberationSans-6f" transform="translate(244.53125 0)"/>
     <use xlink:href="#LiberationSans-6e" transform="translate(300.146484 0)"/>
     <use xlink:href="#LiberationSans-2d" transform="translate(355.761719 0)"/>
     <use xlink:href="#LiberationSans-53" transform="translate(389.0625 0)"/>
     <use xlink:href="#LiberationSans-70" transform="translate(455.761719 0)"/>
     <use xlink:href="#LiberationSans-65" transform="translate(511.376953 0)"/>
     <use xlink:href="#LiberationSans-63" transform="translate(566.992188 0)"/>
     <use xlink:href="#LiberationSans-69" transform="translate(616.992188 0)"/>
     <use xlink:href="#LiberationSans-66" transform="translate(639.208984 0)"/>
     <use xlink:href="#LiberationSans-69" transform="translate(666.992188 0)"/>
     <use xlink:href="#LiberationSans-63" transform="translate(689.208984 0)"/>
     <use xlink:href="#LiberationSans-20" transform="translate(739.208984 0)"/>
     <use xlink:href="#LiberationSans-41" transform="translate(761.492188 0)"/>
     <use xlink:href="#LiberationSans-74" transform="translate(828.191406 0)"/>
     <use xlink:href="#LiberationSans-74" transform="translate(855.974609 0)"/>
     <use xlink:href="#LiberationSans-72" transform="translate(883.757812 0)"/>
     <use xlink:href="#LiberationSans-69" transform="translate(917.058594 0)"/>
     <use xlink:href="#LiberationSans-62" transform="translate(939.275391 0)"/>
     <use xlink:href="#LiberationSans-75" transform="translate(994.890625 0)"/>
     <use xlink:href="#LiberationSans-74" transform="translate(1050.505859 0)"/>
     <use xlink:href="#LiberationSans-69" transform="translate(1078.289062 0)"/>
     <use xlink:href="#LiberationSans-6f" transform="translate(1100.505859 0)"/>
     <use xlink:href="#LiberationSans-6e" transform="translate(1156.121094 0)"/>
     <use xlink:href="#LiberationSans-20" transform="translate(1211.736328 0)"/>
     <use xlink:href="#LiberationSans-49" transform="translate(1239.519531 0)"/>
     <use xlink:href="#LiberationSans-6d" transform="translate(1267.302734 0)"/>
     <use xlink:href="#LiberationSans-70" transform="translate(1350.603516 0)"/>
     <use xlink:href="#LiberationSans-6f" transform="translate(1406.21875 0)"/>
     <use xlink:href="#LiberationSans-72" transform="translate(1461.833984 0)"/>
     <use xlink:href="#LiberationSans-74" transform="translate(1495.134766 0)"/>
     <use xlink:href="#LiberationSans-61" transform="translate(1522.917969 0)"/>
     <use xlink:href="#LiberationSans-6e" transform="translate(1578.533203 0)"/>
     <use xlink:href="#LiberationSans-63" transform="translate(1634.148438 0)"/>
     <use xlink:href="#LiberationSans-65" transform="translate(1684.148438 0)"/>
     <use xlink:href="#LiberationSans-20" transform="translate(1739.763672 0)"/>
     <use xlink:href="#LiberationSans-2d" transform="translate(1767.546875 0)"/>
     <use xlink:href="#LiberationSans-20" transform="translate(1800.847656 0)"/>
     <use xlink:href="#LiberationSans-72" transform="translate(1828.630859 0)"/>
     <use xlink:href="#LiberationSans-65" transform="translate(1861.931641 0)"/>
     <use xlink:href="#LiberationSans-61" transform="translate(1917.546875 0)"/>
     <use xlink:href="#LiberationSans-6c" transform="translate(1973.162109 0)"/>
     <use xlink:href="#LiberationSans-5f" transform="translate(1995.378906 0)"/>
     <use xlink:href="#LiberationSans-70" transform="translate(2050.994141 0)"/>
     <use xlink:href="#LiberationSans-70" transform="translate(2106.609375 0)"/>
     <use xlink:href="#LiberationSans-69" transform="translate(2162.224609 0)"/>
     <use xlink:href="#LiberationSans-73" transform="translate(2184.441406 0)"/>
    </g>
   </g>
   <g id="legend_1">
    <g id="line2d_22">
     <path d="M 60.187813 36.0925 
L 70.187813 36.0925 
L 80.187813 36.0925 
" style="fill: none; stroke: #0000ff; stroke-width: 2; stroke-linecap: round"/>
    </g>
    <g id="text_14">
     <!-- Mean |Attribution| -->
     <g style="fill: #262626" transform="translate(88.187813 39.5925) scale(0.1 -0.1)">
      <defs>
       <path id="LiberationSans-7c" d="M 572 -1356 
L 572 4638 
L 1091 4638 
L 1091 -1356 
L 572 -1356 
z
" transform="scale(0.015625)"/>
      </defs>
      <use xlink:href="#LiberationSans-4d"/>
      <use xlink:href="#LiberationSans-65" transform="translate(83.300781 0)"/>
      <use xlink:href="#LiberationSans-61" transform="translate(138.916016 0)"/>
      <use xlink:href="#LiberationSans-6e" transform="translate(194.53125 0)"/>
      <use xlink:href="#LiberationSans-20" transform="translate(250.146484 0)"/>
      <use xlink:href="#LiberationSans-7c" transform="translate(277.929688 0)"/>
      <use xlink:href="#LiberationSans-41" transform="translate(303.90625 0)"/>
      <use xlink:href="#LiberationSans-74" transform="translate(370.605469 0)"/>
      <use xlink:href="#LiberationSans-74" transform="translate(398.388672 0)"/>
      <use xlink:href="#LiberationSans-72" transform="translate(426.171875 0)"/>
      <use xlink:href="#LiberationSans-69" transform="translate(459.472656 0)"/>
      <use xlink:href="#LiberationSans-62" transform="translate(481.689453 0)"/>
      <use xlink:href="#LiberationSans-75" transform="translate(537.304688 0)"/>
      <use xlink:href="#LiberationSans-74" transform="translate(592.919922 0)"/>
      <use xlink:href="#LiberationSans-69" transform="translate(620.703125 0)"/>
      <use xlink:href="#LiberationSans-6f" transform="translate(642.919922 0)"/>
      <use xlink:href="#LiberationSans-6e" transform="translate(698.535156 0)"/>
      <use xlink:href="#LiberationSans-7c" transform="translate(754.150391 0)"/>
     </g>
    </g>
    <g id="patch_7">
     <path d="M 60.187813 53.958125 
L 80.187813 53.958125 
L 80.187813 46.958125 
L 60.187813 46.958125 
z
" style="fill: #0000ff; fill-opacity: 0.3; stroke: #0000ff; stroke-opacity: 0.3; stroke-linejoin: miter"/>
    </g>
    <g id="text_15">
     <!-- ±1 STD -->
     <g style="fill: #262626" transform="translate(88.187813 53.958125) scale(0.1 -0.1)">
      <defs>
       <path id="LiberationSans-b1" d="M 1988 2125 
L 1988 891 
L 1528 891 
L 1528 2125 
L 203 2125 
L 203 2578 
L 1528 2578 
L 1528 3809 
L 1988 3809 
L 1988 2578 
L 3313 2578 
L 3313 2125 
L 1988 2125 
z
M 203 0 
L 203 453 
L 3313 453 
L 3313 0 
L 203 0 
z
" transform="scale(0.015625)"/>
       <path id="LiberationSans-54" d="M 2250 3916 
L 2250 0 
L 1656 0 
L 1656 3916 
L 144 3916 
L 144 4403 
L 3763 4403 
L 3763 3916 
L 2250 3916 
z
" transform="scale(0.015625)"/>
       <path id="LiberationSans-44" d="M 4316 2247 
Q 4316 1566 4050 1055 
Q 3784 544 3296 272 
Q 2809 0 2172 0 
L 525 0 
L 525 4403 
L 1981 4403 
Q 3100 4403 3708 3842 
Q 4316 3281 4316 2247 
z
M 3716 2247 
Q 3716 3066 3267 3495 
Q 2819 3925 1969 3925 
L 1122 3925 
L 1122 478 
L 2103 478 
Q 2588 478 2955 690 
Q 3322 903 3519 1303 
Q 3716 1703 3716 2247 
z
" transform="scale(0.015625)"/>
      </defs>
      <use xlink:href="#LiberationSans-b1"/>
      <use xlink:href="#LiberationSans-31" transform="translate(54.882812 0)"/>
      <use xlink:href="#LiberationSans-20" transform="translate(110.498047 0)"/>
      <use xlink:href="#LiberationSans-53" transform="translate(138.28125 0)"/>
      <use xlink:href="#LiberationSans-54" transform="translate(204.980469 0)"/>
      <use xlink:href="#LiberationSans-44" transform="translate(266.064453 0)"/>
     </g>
    </g>
   </g>
  </g>
 </g>
 <defs>
  <clipPath id="pe3e9817fab">
   <rect x="51.187813" y="23.345625" width="798.9" height="366.66"/>
  </clipPath>
 </defs>
</svg>
